<?xml version="1.0" standalone="no"?>
<!DOCTYPE svg PUBLIC "-//W3C//DTD SVG 20010904//EN"
 "http://www.w3.org/TR/2001/REC-SVG-20010904/DTD/svg10.dtd">
<svg version="1.0" xmlns="http://www.w3.org/2000/svg"
 width="218.000000pt" height="218.000000pt" viewBox="0 0 218.000000 218.000000"
 preserveAspectRatio="xMidYMid meet">
<metadata>
Created by potrace 1.14, written by Peter Selinger 2001-2017
</metadata>
<g transform="translate(0.000000,218.000000) scale(0.100000,-0.100000)"
fill="#000000" stroke="none">
<path d="M0 1090 l0 -1090 1090 0 1090 0 0 1090 0 1090 -1090 0 -1090 0 0
-1090z m1256 985 c345 -61 616 -275 753 -596 114 -269 106 -565 -25 -831 -51
-106 -102 -176 -189 -264 -183 -182 -400 -279 -655 -291 -316 -15 -614 115
-817 357 -80 94 -174 281 -204 400 -91 376 44 776 346 1019 225 180 509 255
791 206z"/>
<path d="M970 1894 c-188 -37 -345 -120 -466 -246 -138 -142 -210 -312 -221
-513 -20 -383 212 -709 587 -826 107 -34 319 -34 433 -1 141 40 271 118 368
219 143 147 215 314 226 518 17 332 -153 623 -452 773 -110 55 -188 73 -325
77 -69 2 -136 1 -150 -1z m550 -317 c13 -7 35 -28 47 -46 22 -33 23 -42 23
-237 l0 -204 -187 -125 -188 -125 -128 0 -128 0 3 63 3 62 187 125 187 125 1
63 0 62 -315 0 -315 0 0 125 0 125 393 0 c293 0 398 -3 417 -13z m-305 -987
l0 -125 -125 0 -125 0 -3 114 c-1 63 0 121 2 128 4 11 33 13 128 11 l123 -3 0
-125z"/>
</g>
</svg>
